<?xml version="1.0" standalone="no"?>
<!DOCTYPE svg PUBLIC "-//W3C//DTD SVG 20010904//EN"
 "http://www.w3.org/TR/2001/REC-SVG-20010904/DTD/svg10.dtd">
<svg version="1.0" xmlns="http://www.w3.org/2000/svg"
 width="2559.000000pt" height="820.000000pt" viewBox="0 0 2559.000000 820.000000"
 preserveAspectRatio="xMidYMid meet">
<metadata>
Created by potrace 1.15, written by Peter Selinger 2001-2017
</metadata>
<g transform="translate(0.000000,820.000000) scale(0.100000,-0.100000)"
fill="#000000" stroke="none">
<path d="M17095 7809 c-315 -55 -583 -195 -810 -423 -279 -280 -432 -601 -484
-1015 -16 -126 -14 -432 5 -562 69 -500 329 -933 715 -1190 349 -233 814 -307
1246 -199 201 51 350 122 520 249 497 370 745 1023 652 1720 -92 697 -537
1234 -1153 1392 -206 53 -484 64 -691 28z m547 -348 c319 -84 605 -349 749
-692 145 -347 178 -763 89 -1109 -93 -360 -327 -672 -620 -828 -297 -158 -644
-162 -952 -12 -226 112 -412 305 -539 560 -118 238 -172 545 -149 845 50 656
438 1160 967 1255 87 16 368 4 455 -19z"/>
<path d="M8705 7769 c-178 -18 -387 -74 -510 -137 -139 -70 -277 -194 -363
-325 -94 -144 -127 -272 -119 -466 5 -145 22 -214 77 -326 102 -208 264 -334
722 -562 135 -68 286 -149 335 -182 167 -112 252 -229 273 -378 20 -146 -18
-276 -107 -367 -124 -125 -276 -186 -583 -233 -139 -21 -422 -23 -648 -4 -84
8 -155 11 -158 9 -4 -5 15 -350 20 -355 1 -1 122 -8 268 -15 384 -17 621 2
868 73 400 115 654 342 741 664 17 63 22 109 22 215 1 165 -15 238 -80 370
-41 83 -61 108 -158 206 -132 132 -201 177 -548 355 -389 200 -520 299 -590
446 -29 62 -32 76 -32 168 0 91 3 106 31 165 80 166 240 269 496 317 115 21
469 24 661 4 71 -7 131 -10 134 -7 7 6 -23 346 -31 353 -18 19 -570 28 -721
12z"/>
<path d="M21104 7497 c-341 -367 -662 -705 -1056 -1109 -176 -180 -318 -334
-316 -341 2 -8 154 -150 338 -317 438 -397 775 -708 1034 -955 115 -110 247
-235 293 -278 l83 -79 138 133 c75 73 137 137 137 143 0 6 -178 173 -395 371
-217 197 -558 509 -757 693 l-363 334 19 24 c40 50 876 902 1127 1147 145 142
264 262 264 266 0 9 -270 251 -279 251 -3 -1 -124 -128 -267 -283z"/>
<path d="M13057 7743 l-59 -4 6 -72 c11 -140 16 -1732 8 -2462 -5 -407 -8
-741 -7 -742 1 -2 136 -6 301 -9 670 -15 1091 59 1519 266 233 113 395 230
545 395 194 212 295 404 352 668 19 87 22 132 22 312 0 190 -3 222 -28 339
-60 285 -178 505 -379 705 -369 366 -887 559 -1612 601 -159 9 -538 11 -668 3z
m853 -357 c391 -58 646 -148 897 -317 334 -226 513 -565 513 -973 0 -339 -101
-579 -345 -820 -241 -239 -576 -387 -1042 -461 -54 -9 -194 -19 -310 -22
l-213 -6 0 1214 c0 668 3 1258 7 1313 l6 99 191 -6 c105 -3 238 -12 296 -21z"/>
<path d="M9805 6643 c3 -604 8 -1134 11 -1178 17 -268 115 -500 289 -684 244
-259 601 -391 1050 -391 427 1 771 126 1016 370 180 179 279 395 308 676 6 59
12 547 15 1202 l4 1102 -206 0 -207 0 3 -1097 c2 -695 -1 -1129 -7 -1181 -16
-128 -38 -208 -88 -312 -84 -176 -242 -302 -454 -363 -196 -57 -511 -63 -704
-13 -313 81 -521 282 -595 575 -38 151 -43 317 -37 1384 l6 1007 -205 0 -205
0 6 -1097z"/>
<path d="M19236 7638 c9 -130 9 -3068 -1 -3125 l-7 -43 209 0 208 0 0 1635 0
1635 -209 0 -208 0 8 -102z"/>
<path d="M21765 6643 c3 -604 8 -1134 11 -1178 17 -268 115 -500 289 -684 244
-259 601 -391 1050 -391 427 1 771 126 1016 370 180 179 279 395 308 676 6 59
12 547 15 1202 l4 1102 -206 0 -207 0 3 -1097 c2 -695 -1 -1129 -7 -1181 -16
-128 -38 -208 -88 -312 -84 -176 -242 -302 -454 -363 -196 -57 -511 -63 -704
-13 -313 81 -521 282 -595 575 -38 151 -43 317 -37 1384 l6 1007 -205 0 -205
0 6 -1097z"/>
<path d="M2662 7607 c-44 -14 -117 -79 -146 -130 -50 -88 -58 -202 -20 -282
25 -54 95 -122 152 -148 41 -19 69 -22 225 -25 l177 -4 0 -905 0 -905 -1142
-1806 c-628 -994 -1159 -1838 -1181 -1876 -176 -303 -168 -578 22 -766 77 -76
133 -108 256 -147 l90 -28 2785 -3 c3070 -3 2892 -6 3060 59 93 35 187 101
231 161 140 190 141 409 3 678 -24 47 -564 904 -1199 1905 l-1155 1820 0 906
0 907 178 4 c162 3 181 5 222 27 143 74 207 182 182 307 -23 111 -86 197 -177
240 l-50 24 -1240 -1 c-838 -1 -1251 -4 -1273 -12z m1568 -1585 l0 -999 661
-1042 c363 -574 659 -1045 656 -1047 -2 -2 -728 -3 -1614 -2 l-1610 3 611 971
c336 534 635 1005 664 1046 l52 76 0 996 0 996 290 0 290 0 0 -998z m-590
-3404 c11 -21 12 -32 4 -45 -6 -10 -75 -139 -154 -288 -79 -148 -144 -271
-146 -273 -1 -2 -16 4 -32 12 l-30 16 77 142 c42 79 107 200 144 271 l66 127
-180 0 -179 0 0 35 0 35 207 -2 207 -3 16 -27z m900 -3 l0 -35 -135 0 -136 0
3 -92 3 -93 52 -7 c114 -17 181 -71 191 -153 6 -61 -3 -89 -44 -135 -43 -48
-113 -76 -213 -86 -79 -7 -91 -2 -91 44 0 20 4 22 58 22 128 0 212 51 212 129
0 68 -61 110 -176 118 l-74 6 0 152 c0 83 3 155 7 158 3 4 82 7 175 7 l168 0
0 -35z m-2270 -437 l0 -238 -35 0 -35 0 -2 210 -3 209 -70 -44 c-38 -24 -72
-45 -75 -45 -3 0 -11 9 -17 20 -12 18 -4 25 85 89 96 68 97 69 125 53 l27 -16
0 -238z m3165 238 c50 -21 84 -52 101 -93 42 -97 -16 -201 -160 -287 l-59 -35
167 6 166 6 0 -36 0 -37 -220 0 -220 0 -11 27 c-6 15 -7 29 -2 30 28 10 184
110 212 136 64 61 78 135 35 186 -30 36 -77 51 -161 51 -62 0 -63 0 -63 28 0
16 3 32 8 36 12 13 164 0 207 -18z m-2566 -347 l25 -20 -94 -94 c-62 -62 -89
-96 -79 -98 8 -3 34 -10 59 -17 112 -30 190 -115 190 -208 0 -129 -95 -222
-228 -222 -113 0 -191 53 -218 148 -26 87 0 178 76 275 54 68 229 257 238 257
4 -1 18 -10 31 -21z m3132 -300 c78 -39 115 -113 107 -213 -6 -70 -23 -107
-83 -186 -48 -62 -223 -250 -233 -250 -4 0 -18 9 -32 20 l-25 19 88 88 c48 49
87 92 87 96 0 4 -9 7 -20 7 -44 0 -134 44 -176 85 -93 93 -75 245 39 321 69
46 172 51 248 13z m-1337 -9 c57 -27 86 -70 86 -126 0 -48 -30 -98 -77 -129
l-31 -21 57 -25 c59 -26 91 -68 91 -118 0 -28 -26 -90 -48 -114 -45 -50 -185
-92 -282 -85 -42 3 -45 5 -48 34 l-3 32 93 4 c114 5 172 30 194 84 31 74 -28
131 -147 141 -49 5 -59 9 -59 24 0 11 -1 22 -2 26 -2 3 20 12 47 18 90 20 135
60 135 118 0 56 -54 91 -158 103 -34 3 -62 9 -62 13 0 3 3 17 7 30 6 23 9 23
83 19 52 -3 92 -12 124 -28z m-2912 -182 c100 -55 109 -176 19 -262 l-30 -29
39 -28 c54 -39 73 -80 68 -144 -6 -67 -34 -106 -100 -139 -90 -45 -223 -32
-286 27 -81 75 -70 188 24 265 l35 29 -26 17 c-60 39 -83 132 -50 196 19 36
69 75 115 89 54 16 143 6 192 -21z m1889 -128 c18 -10 19 -23 19 -180 l0 -170
55 0 c54 0 55 0 55 -30 0 -30 -1 -30 -55 -30 l-55 0 0 -115 0 -115 -35 0 -35
0 0 115 0 115 -140 0 -139 0 -15 29 c-15 28 -14 29 47 97 34 39 106 120 160
182 54 62 103 112 109 112 5 0 18 -5 29 -10z"/>
<path d="M2635 1760 c-15 -23 -32 -66 -38 -96 -10 -47 -9 -59 9 -101 35 -84
124 -117 208 -78 72 34 99 147 51 217 -26 39 -104 82 -167 93 -35 7 -38 5 -63
-35z"/>
<path d="M5803 1710 c-58 -35 -82 -99 -64 -167 17 -62 81 -112 172 -132 53
-12 63 -5 95 64 43 92 23 198 -44 238 -41 23 -118 22 -159 -3z"/>
<path d="M1591 1540 c-80 -18 -110 -103 -56 -160 15 -16 54 -39 88 -51 l60
-23 32 36 c93 101 14 228 -124 198z"/>
<path d="M1536 1234 c-97 -100 -45 -224 93 -224 165 0 196 162 44 228 -89 38
-97 38 -137 -4z"/>
<path d="M3478 1236 c-60 -69 -108 -127 -108 -130 0 -3 50 -6 110 -6 l110 0 0
130 c0 72 -1 130 -2 130 -2 0 -51 -56 -110 -124z"/>
<path d="M8705 3949 c-178 -18 -387 -74 -510 -137 -139 -70 -277 -194 -363
-325 -94 -144 -127 -272 -119 -466 5 -145 22 -214 77 -326 102 -208 264 -334
722 -562 135 -68 286 -149 335 -182 167 -112 252 -229 273 -378 20 -146 -18
-276 -107 -367 -124 -125 -276 -186 -583 -233 -139 -21 -422 -23 -648 -4 -84
8 -155 11 -158 9 -4 -5 15 -350 20 -355 1 -1 122 -8 268 -15 384 -17 621 2
868 73 400 115 654 342 741 664 17 63 22 109 22 215 1 165 -15 238 -80 370
-41 83 -61 108 -158 206 -132 132 -201 177 -548 355 -389 200 -520 299 -590
446 -29 62 -32 76 -32 168 0 91 3 106 31 165 80 166 240 269 496 317 115 21
469 24 661 4 71 -7 131 -10 134 -7 7 6 -23 346 -31 353 -18 19 -570 28 -721
12z"/>
<path d="M11515 3934 c-522 -57 -1011 -247 -1326 -517 -192 -164 -369 -426
-448 -662 -100 -301 -90 -726 24 -1025 177 -465 545 -788 1109 -974 293 -97
690 -156 1055 -156 l107 0 12 143 c7 78 15 158 18 177 l6 35 -174 3 c-838 12
-1482 327 -1698 831 -70 162 -100 310 -100 491 0 205 44 379 141 555 209 379
605 619 1179 714 170 28 218 32 402 38 l196 6 -4 31 c-5 39 -24 280 -24 307 0
18 -8 19 -172 18 -95 -1 -231 -8 -303 -15z"/>
<path d="M16037 3856 l-189 -90 7 -91 c10 -121 10 -2928 1 -2982 l-8 -43 196
0 196 0 -6 1348 -7 1347 69 -85 c152 -187 941 -1179 1105 -1390 224 -289 571
-745 778 -1023 89 -119 164 -217 166 -217 3 0 76 36 164 79 l158 80 0 1458 c0
802 4 1506 8 1566 l7 107 -196 0 -196 0 1 -562 c1 -310 4 -889 8 -1288 3 -399
6 -726 6 -727 -1 -2 24 -34 -606 753 -272 340 -712 895 -978 1231 -265 337
-485 614 -489 616 -4 2 -92 -37 -195 -87z"/>
<path d="M20925 3934 c-522 -57 -1011 -247 -1326 -517 -192 -164 -369 -426
-448 -662 -100 -301 -90 -726 24 -1025 177 -465 545 -788 1109 -974 293 -97
690 -156 1055 -156 l107 0 12 143 c7 78 15 158 18 177 l6 35 -174 3 c-838 12
-1482 327 -1698 831 -70 162 -100 310 -100 491 0 205 44 379 141 555 209 379
605 619 1179 714 170 28 218 32 402 38 l196 6 -4 31 c-5 39 -24 280 -24 307 0
18 -8 19 -172 18 -95 -1 -231 -8 -303 -15z"/>
<path d="M12295 2285 l0 -1635 200 0 200 0 0 1635 0 1635 -200 0 -200 0 0
-1635z"/>
<path d="M13336 3815 c9 -131 9 -3067 0 -3122 l-8 -43 1046 0 1046 0 0 173 0
174 -834 -1 c-459 0 -837 2 -839 4 -2 3 -7 270 -11 594 l-6 589 830 -6 830 -6
0 173 0 172 -832 -4 -831 -5 6 93 c4 51 7 290 7 532 l0 438 825 0 825 0 0 173
0 172 -1031 0 -1031 0 8 -100z"/>
<path d="M21686 3815 c9 -131 9 -3067 0 -3122 l-8 -43 1046 0 1046 0 0 173 0
174 -834 -1 c-459 0 -837 2 -839 4 -2 3 -7 270 -11 594 l-6 589 830 -6 830 -6
0 173 0 172 -832 -4 -831 -5 6 93 c4 51 7 290 7 532 l0 438 825 0 825 0 0 173
0 172 -1031 0 -1031 0 8 -100z"/>
</g>
</svg>
